/* XPM */
static char *_4905b242a1d402eb3703b424609490dVLk2R0HUgBzuPX3F[] = {
/* columns rows colors chars-per-pixel */
"32 32 3 1 ",
"  c None",
". c #C2971D",
"X c #F5EB22",
/* pixels */
"                                ",
"                                ",
"                                ",
"                                ",
"                                ",
"                                ",
"            XXXXXXXX..          ",
"            XXXXXXXX..          ",
"          XXXXXXXXXXXX..        ",
"          XXXXXXXXXXXX..        ",
"          XXXXXX..XXXX..        ",
"          XXXXXX..XXXX..        ",
"          XXXXXX..XXXX..        ",
"          XXXXXX..XXXX..        ",
"          XXXXXX..XXXX..        ",
"          XXXXXX..XXXX..        ",
"          XXXXXX..XXXX..        ",
"          XXXXXX..XXXX..        ",
"          XXXXXX..XXXX..        ",
"          XXXXXX..XXXX..        ",
"          XXXXXX..XXXX..        ",
"          XXXXXX..XXXX..        ",
"          XXXXXXXXXXXX..        ",
"          XXXXXXXXXXXX..        ",
"            XXXXXXXX..          ",
"            XXXXXXXX..          ",
"                                ",
"                                ",
"                                ",
"                                ",
"                                ",
"                                "
};
