/* XPM */
static char *_bf2f9ac94b5441be4ae2bb266a0064asnyyAlf9209LiX2i[] = {
/* columns rows colors chars-per-pixel */
"32 32 5 1 ",
"  c None",
". c #2E2A27",
"X c #2A2A2A",
"o c #513F3A",
"O c #74544E",
/* pixels */
"          ............          ",
"          ............          ",
"      XXXXooOO..ooOOooXXXX      ",
"      XXXXooOO..ooOOooXXXX      ",
"    XXooOOOOOO..ooOOOOOOooXX    ",
"    XXooOOOOOO..ooOOOOOOooXX    ",
"  XXooOOOOOOOO..ooOOOOOOOOooXX  ",
"  XXooOOOOOOOO..ooOOOOOOOOooXX  ",
"  XXOOOOOOOOOO..ooOOOOOOOOOOXX  ",
"  XXOOOOOOOOOO..ooOOOOOOOOOOXX  ",
"..ooOOOOOOOOOO..ooOOOOOOOOOOoo..",
"..ooOOOOOOOOOO..ooOOOOOOOOOOoo..",
"..OOOOOOOOOOOO..ooOOOOOOOOOOOO..",
"..OOOOOOOOOOOO..ooOOOOOOOOOOOO..",
"..OOOOOOOOOOOO..ooOOOOOOOOOOOO..",
"..OOOOOOOOOOOO..ooOOOOOOOOOOOO..",
"..OOOOOOOOXXOO..ooOOXXOOOOOOOO..",
"..OOOOOOOOXXOO..ooOOXXOOOOOOOO..",
"..OOOOOOOOXXOO..ooOOXXOOOOOOOO..",
"..OOOOOOOOXXOO..ooOOXXOOOOOOOO..",
"..OOOOOOOOOOOO..ooOOOOOOOOOOOO..",
"..OOOOOOOOOOOO..ooOOOOOOOOOOOO..",
"..OOOOOOOOOOOO..ooOOOOOOOOOOOO..",
"..OOOOOOOOOOOO..ooOOOOOOOOOOOO..",
"..OOOOOOOOOOOO..ooOOOOOOOOOOOO..",
"..OOOOOOOOOOOO..ooOOOOOOOOOOOO..",
"..oooooooooooo..oooooooooooooo..",
"..oooooooooooo..oooooooooooooo..",
"..OOOOOOOOOOOO..ooOOOOOOOOOOOO..",
"..OOOOOOOOOOOO..ooOOOOOOOOOOOO..",
"................................",
"................................"
};
