/* XPM */
static char *c2e3043528684a6294cddc467501f4f6sec0PvaApuY2s19m[] = {
/* columns rows colors chars-per-pixel */
"32 32 5 1 ",
"  c None",
". c #211E43",
"X c #1F72BA",
"o c #248FED",
"O c #EFD4BA",
/* pixels */
"                                ",
"                                ",
"                                ",
"                                ",
"        XXooooooooooooXX        ",
"        XXooooooooooooXX        ",
"      XXooooooooooooooooXX      ",
"      XXooooooooooooooooXX      ",
"      oooooooooooooooooooo      ",
"      oooooooooooooooooooo      ",
"    XXoo................ooXX    ",
"    XXoo................ooXX    ",
"    ooooOOOO..OOOO..OOOOoooo    ",
"    ooooOOOO..OOOO..OOOOoooo    ",
"    XXooOOOO..OOOO..OOOOooXX    ",
"    XXooOOOO..OOOO..OOOOooXX    ",
"      XX  OOOOOOOOOOOO  XX      ",
"      XX  OOOOOOOOOOOO  XX      ",
"              oooo              ",
"              oooo              ",
"            XXooooXX            ",
"            XXooooXX            ",
"            oooooooo            ",
"            oooooooo            ",
"          XXooooooooXX          ",
"          XXooooooooXX          ",
"          oooooooooooo          ",
"          oooooooooooo          ",
"        XXooooooooooooXX        ",
"        XXooooooooooooXX        ",
"        oooooooooooooooo        ",
"        oooooooooooooooo        "
};
